<svg width="30" height="30" viewBox="0 0 30 30" fill="none" xmlns="http://www.w3.org/2000/svg">
<path d="M27.8468 12.552C27.8468 11.2196 26.7652 10.1512 25.4433 10.1512H17.848L19.0017 4.6653C19.0258 4.54526 19.0378 4.41321 19.0378 4.28117C19.0378 3.789 18.8335 3.33284 18.509 3.00873L17.2351 1.74829L9.32743 9.64702C8.88278 10.0912 8.61838 10.6914 8.61838 11.3516V23.3558C8.61838 23.9925 8.87162 24.6032 9.32237 25.0534C9.77312 25.5036 10.3845 25.7566 11.0219 25.7566H21.8379C22.8354 25.7566 23.6887 25.1564 24.0492 24.2921L27.6786 15.8292C27.7867 15.5531 27.8468 15.265 27.8468 14.9529V12.552ZM1.40771 25.7566H6.21483V11.3516H1.40771V25.7566Z" fill="black"/>
</svg>
