<svg width="30" height="30" viewBox="0 0 30 30" fill="none" xmlns="http://www.w3.org/2000/svg">
<path d="M6.20946 11.7513V26.1562H1.40234V11.7513H6.20946ZM11.0166 26.1562C10.3791 26.1562 9.76775 25.9033 9.317 25.4531C8.86624 25.0028 8.61301 24.3922 8.61301 23.7554V11.7513C8.61301 11.091 8.8774 10.4908 9.32206 10.0587L17.2298 2.14795L18.5036 3.42039C18.8281 3.7445 19.0324 4.18865 19.0324 4.68082L18.9964 5.06496L17.8547 10.5509H25.4379C26.7719 10.5509 27.8415 11.6312 27.8415 12.9517V15.3525C27.8415 15.6646 27.7814 15.9527 27.6732 16.2288L24.0438 24.6917C23.6833 25.556 22.8301 26.1562 21.8326 26.1562H11.0166ZM11.0166 23.7554H21.8686L25.4379 15.3525V12.9517H14.8743L16.2323 6.56548L11.0166 11.7873V23.7554Z" fill="black"/>
</svg>
