<svg width="20" height="18" viewBox="0 0 20 18" fill="none" xmlns="http://www.w3.org/2000/svg">
<g clip-path="url(#clip0_717_227)">
<rect width="20" height="18" fill="white"/>
<path d="M19.1667 8.25H0.833333C0.373096 8.25 0 8.58579 0 9C0 9.41421 0.373096 9.75 0.833333 9.75H19.1667C19.6269 9.75 20 9.41421 20 9C20 8.58579 19.6269 8.25 19.1667 8.25Z" fill="#222222"/>
<path d="M19.1667 3H0.833333C0.373096 3 0 3.33579 0 3.75C0 4.16421 0.373096 4.5 0.833333 4.5H19.1667C19.6269 4.5 20 4.16421 20 3.75C20 3.33579 19.6269 3 19.1667 3Z" fill="#222222"/>
<path d="M19.1667 13.5H0.833333C0.373096 13.5 0 13.8358 0 14.25C0 14.6642 0.373096 15 0.833333 15H19.1667C19.6269 15 20 14.6642 20 14.25C20 13.8358 19.6269 13.5 19.1667 13.5Z" fill="#222222"/>
</g>
<defs>
<clipPath id="clip0_717_227">
<rect width="20" height="18" fill="white"/>
</clipPath>
</defs>
</svg>
