<svg width="35" height="35" viewBox="0 0 35 35" fill="none" xmlns="http://www.w3.org/2000/svg">
<path d="M18.0308 15L27.484 15C29.8882 15 30.9066 18.0619 28.9815 19.5019C28.5492 19.8253 28.0239 20 27.484 20H7.51597C6.97613 20 6.4508 19.8253 6.01852 19.5019C4.09337 18.0619 5.11183 15 7.51597 15L18.0308 15Z" fill="white"/>
<path d="M15 16.9692L15 7.51598C15 5.11183 18.0619 4.09337 19.5019 6.01852C19.8253 6.4508 20 6.97613 20 7.51597V27.484C20 28.0239 19.8253 28.5492 19.5019 28.9815C18.0619 30.9066 15 29.8882 15 27.484L15 16.9692Z" fill="white"/>
</svg>
